# xmcd
#
# Track frame offsets:
#	150
#	16534
#	39383
#	54569
#	72235
#	87690
#	106833
#	129821
#	190635
#	221495
#
# Disc length: 3167 seconds
#
# Revision: 0
# Processed by: cddbd v1.4PL0 Copyright (c) Steve Scherf et al.
# Submitted via: dBpowerAMP V4.0
#
DISCID=7a0c5d0a
DTITLE=Jay Johnson - Images
DYEAR=1900
DGENRE=Country
TTITLE0=In The Flash of The Storm
TTITLE1=Something Deep Within Me
TTITLE2=Another Night With You
TTITLE3=Cinderella
TTITLE4=Gumball Wedding Band
TTITLE5=Jane
TTITLE6=Perfect Villan
TTITLE7=Long Road to Heaven
TTITLE8=Another Day
TTITLE9=Images
EXTD=
EXTT0=
EXTT1=
EXTT2=
EXTT3=
EXTT4=
EXTT5=
EXTT6=
EXTT7=
EXTT8=
EXTT9=
PLAYORDER=
